# xmcd
#
# Track frame offsets:
# 150
# 7432
# 28110
# 51322
# 74310
# 92462
# 111850
# 135227
# 159127
# 178880
# 203755
# 224290
# 252220
#
# Disc length: 3630 seconds
#
#
# Revision: 1
# Processed by: cddbd v1.5.2PL0 Copyright (c) Steve Scherf et al.
# Submitted via: FreeRIP 2.951 
#
DISCID=b30e2c0d
DTITLE=Michael Speaks - No Equal
DYEAR=1995
DGENRE=R&B
TTITLE0=Undisputed
TTITLE1=I'll make it allright
TTITLE2=Is it still good?
TTITLE3=Out of my mind
TTITLE4=I specialize
TTITLE5=Heartbreaker
TTITLE6=From the back
TTITLE7=I'm sorry
TTITLE8=If only for one night
TTITLE9=Whatever you need
TTITLE10=Nothin' I wouldn't do for you
TTITLE11=Jesus is real
TTITLE12=You don't have to cry
EXTD=
EXTT0=
EXTT1=
EXTT2=
EXTT3=
EXTT4=
EXTT5=
EXTT6=
EXTT7=
EXTT8=
EXTT9=
EXTT10=
EXTT11=featuring TGE Choir (True Gospel Ensemble Choir)
EXTT12=
PLAYORDER=
